<svg width="57" height="47" viewBox="0 0 57 47" fill="none" xmlns="http://www.w3.org/2000/svg">
<path d="M51.8104 9.41007L40.6438 17.3942C39.1642 18.4551 37.0425 17.813 36.4004 16.1101L31.1242 2.04007C30.2308 -0.388682 26.7971 -0.388682 25.9038 2.04007L20.5996 16.0822C19.9575 17.813 17.8638 18.4551 16.3842 17.3663L5.2175 9.38215C2.98417 7.81882 0.0250018 10.0242 0.946252 12.6205L12.5596 45.1434C12.9504 46.2601 14.0113 46.9859 15.1838 46.9859H41.7883C42.9608 46.9859 44.0217 46.2321 44.4125 45.1434L56.0258 12.6205C56.975 10.0242 54.0158 7.81882 51.8104 9.41007ZM35.4792 35.1772H21.5208C20.3763 35.1772 19.4271 34.228 19.4271 33.0834C19.4271 31.9388 20.3763 30.9897 21.5208 30.9897H35.4792C36.6238 30.9897 37.5729 31.9388 37.5729 33.0834C37.5729 34.228 36.6238 35.1772 35.4792 35.1772Z" fill="#EDA415"/>
</svg>
