<svg xmlns="http://www.w3.org/2000/svg" version="1.1" xmlns:xlink="http://www.w3.org/1999/xlink" xmlns:svgjs="http://svgjs.dev/svgjs" width="1440" height="560" preserveAspectRatio="none" viewBox="0 0 1440 560"><g mask="url(&quot;#SvgjsMask1033&quot;)" fill="none"><path d="M1067.260396720648 481.46922030995626L1153.8479814889345 429.4421505259823 1101.8209117049605 342.8545657576959 1015.2333269366741 394.8816355416699z" fill="rgba(28, 83, 142, 0.4)" class="triangle-float2"></path><path d="M549.6467890646883 265.0760912875779L659.0855309257772 347.5440984551556 741.5535380933549 238.10535659406668 632.1147962322659 155.637349426489z" fill="rgba(28, 83, 142, 0.4)" class="triangle-float2"></path><path d="M865.9228564845348 82.85870633697591L738.3716820109946 6.218228685112166 789.282378832671 210.40988081051614z" fill="rgba(28, 83, 142, 0.4)" class="triangle-float3"></path><path d="M855.547900609735 529.2963394346075L913.4301781007792 530.3066783464068 886.004547722956 442.97809265394085z" fill="rgba(28, 83, 142, 0.4)" class="triangle-float1"></path><path d="M798.2111448937198 579.938129371481L927.0198432102477 602.6505782346218 949.7322920733884 473.841879918094 820.9235937568607 451.12943105495316z" fill="rgba(28, 83, 142, 0.4)" class="triangle-float3"></path><path d="M494.08866114544486 425.90678666354546L557.3134274238323 535.6567109289721 614.3382329235693 440.75149715073076z" fill="rgba(28, 83, 142, 0.4)" class="triangle-float1"></path><path d="M494.588,459.27C522.507,460.601,548.907,443.537,561.375,418.521C572.769,395.66,564.325,369.127,550.085,347.921C537.627,329.369,516.929,319.592,494.588,319.065C471.142,318.512,446.503,325.125,434.365,345.193C421.875,365.842,426.721,391.3,437.987,412.641C450.219,435.811,468.418,458.023,494.588,459.27" fill="rgba(28, 83, 142, 0.4)" class="triangle-float2"></path><path d="M1458.582528374516 420.3542007894221L1349.3072339098421 449.6344276939046 1378.5874608143245 558.9097221585785 1487.8627552789985 529.629495254096z" fill="rgba(28, 83, 142, 0.4)" class="triangle-float2"></path><path d="M774.682,609.667C824.554,609.558,870.081,580.572,893.63,536.61C915.972,494.9,909.966,444.416,884.592,404.478C861.037,367.404,818.581,350.874,774.682,349.39C727.447,347.793,676.529,356.747,651.098,396.584C624.069,438.923,629.627,493.68,654.828,537.132C679.938,580.427,724.632,609.776,774.682,609.667" fill="rgba(28, 83, 142, 0.4)" class="triangle-float3"></path><path d="M1246.8772415813298 551.0449662437113L1329.9082681659052 578.023382179478 1273.8556575170965 468.0139396591359z" fill="rgba(28, 83, 142, 0.4)" class="triangle-float3"></path></g><defs><mask id="SvgjsMask1033"><rect width="1440" height="560" fill="#ffffff"></rect></mask><style>
                @keyframes float1 {
                    0%{transform: translate(0, 0)}
                    50%{transform: translate(-10px, 0)}
                    100%{transform: translate(0, 0)}
                }

                .triangle-float1 {
                    animation: float1 5s infinite;
                }

                @keyframes float2 {
                    0%{transform: translate(0, 0)}
                    50%{transform: translate(-5px, -5px)}
                    100%{transform: translate(0, 0)}
                }

                .triangle-float2 {
                    animation: float2 4s infinite;
                }

                @keyframes float3 {
                    0%{transform: translate(0, 0)}
                    50%{transform: translate(0, -10px)}
                    100%{transform: translate(0, 0)}
                }

                .triangle-float3 {
                    animation: float3 6s infinite;
                }
            </style></defs></svg>