<svg xmlns="http://www.w3.org/2000/svg" version="1.1" xmlns:xlink="http://www.w3.org/1999/xlink" xmlns:svgjs="http://svgjs.dev/svgjs" width="1070" height="454" preserveAspectRatio="none" viewBox="0 0 1070 454"><g mask="url(&quot;#SvgjsMask1003&quot;)" fill="none"><rect width="1070" height="454" x="0" y="0" fill="rgba(14, 42, 71, 1)"></rect><path d="M1133.75 433.88C1051.06 433.67 970.81 377.13 807.88 377.13 644.94 377.13 672.17 449.09 482 433.88 291.83 418.67 285.03 33.92 156.13-19.81" stroke="rgba(51,121,194,0.58)" stroke-width="2"></path><path d="M1095.58 74.71C994.52 79.33 916.59 252.29 731.73 251.77 546.87 251.25 485.45-36.75 367.88-56.52" stroke="rgba(51,121,194,0.58)" stroke-width="2"></path><path d="M1163.55 340.52C1086.49 340.28 1012.06 283.77 860.57 283.77 709.08 283.77 729.43 350.73 557.6 340.52 385.76 330.31 369.72-2.08 254.62-43.22" stroke="rgba(51,121,194,0.58)" stroke-width="2"></path><path d="M1087.6 382.6C943.66 378.45 843.82 173.89 554.39 164.68 264.97 155.47 166.69-64.42 21.19-69.5" stroke="rgba(51,121,194,0.58)" stroke-width="2"></path><path d="M1213.15 72.73C1134.61 78.41 1082.2 232.98 941.17 231.63 800.14 230.28 767.78-47.65 669.19-76.76" stroke="rgba(51,121,194,0.58)" stroke-width="2"></path></g><defs><mask id="SvgjsMask1003"><rect width="1070" height="454" fill="#ffffff"></rect></mask></defs></svg>