<svg xmlns="http://www.w3.org/2000/svg" version="1.1" xmlns:xlink="http://www.w3.org/1999/xlink" xmlns:svgjs="http://svgjs.dev/svgjs" width="1500" height="310" viewBox="0 0 1500 310"><g transform="matrix(1,0,0,1,-0.9084522071641459,-1.4658419211964144)"><svg viewBox="0 0 396 82" data-background-color="#ffffff" preserveAspectRatio="xMidYMid meet" height="310" width="1500" xmlns="http://www.w3.org/2000/svg" xmlns:xlink="http://www.w3.org/1999/xlink"><g id="tight-bounds" transform="matrix(1,0,0,1,0.24008861730862918,0.387738830768086)"><svg viewBox="0 0 395.52 81.22451863739121" height="81.22451863739121" width="395.52"><g><svg viewBox="0 0 395.52 81.22451863739121" height="81.22451863739121" width="395.52"><g><svg viewBox="0 0 395.52 81.22451863739121" height="81.22451863739121" width="395.52"><g id="textblocktransform"><svg viewBox="0 0 395.52 81.22451863739121" height="81.22451863739121" width="395.52" id="textblock"><g><svg viewBox="0 0 395.52 81.22451863739121" height="81.22451863739121" width="395.52"><path d="M394.594 17.421C392.735 8.99 387.435 6.646 387.435 6.646 371.165-2.038 350.86-0.166 332.619 1.082 300.414 1.132 268.339 2.987 236.208 3.982 168.767 4.134 100.749 1.638 33.643 7.793 27.339 9.681-6.54 8.164 1.121 18.5 3.129 22.8 10.456 27.572 10.232 31.518 11.236 32.209 12.631 30.624 13.226 31.619 15.309 34.3 18.711 33.035 21.501 34.621 17.614 38.853 20.403 42.377 23.062 46.07 18.377 47.031 12.371 46.576 9.675 49.763 9.396 52.073 7.89 51.634 6.235 51.533 5.026 51.466 2.59 51.719 2.999 52.444 4.394 54.923-1.594 56.356 2.162 58.784-0.422 61.414 3.948 63.691 3.353 66.541 3.278 67.114 3.687 67.603 4.338 67.738 7.22 68.463 3.018 69.879 3.464 71.414 33.029 81.902 65.104 74.651 95.394 79.474 103.259 76.101 97.346 80.671 100.489 79.963 102.943 79.137 104.728 82.56 107.499 80.62 107.927 80.064 107.276 78.749 108.8 79.002 109.6 79.137 110.307 79.103 110.418 78.327 110.586 77.164 109.117 77.889 108.726 77.282 112.947 74.213 111.906 81.514 115.866 81.211 115.68 80.317 114.528 79.035 116.889 79.204 119.232 77.923 119.306 76.86 121.389 79.744 121.463 80.368 121.835 80.806 122.43 81.109 128.938 77.973 135.409 82.222 142.233 80.806 146.417 79.255 150.433 81.649 154.672 81.059 156.16 80.587 157.666 79.744 159.098 81.16 176.632 81.464 195.319 80.199 211.943 81.211 256.364 79.322 303.836 81.986 350.674 79.491 361.719 78.53 373.192 77.164 383.958 76.068 383.958 76.068 392.679 73.066 392.679 59.576S394.538 47.773 394.817 37.032C395.096 26.291 396.398 25.852 394.538 17.421Z" opacity="1" fill="#095672" data-fill-palette-color="tertiary"></path><g transform="matrix(1,0,0,1,55.76832,26.230666666666668)"><svg width="283.98335999999995" viewBox="2.65 -35.25 358.88 36.3511013215859" height="28.763185304057874" data-palette-color="#ffffff"><path d="M9-30.35Q7.8-30.35 7.2-29.75L7.2-29.75Q6.85-29.55 6.6-29.1 6.35-28.65 6.3-28.15L6.3-28.15 2.65-28.35Q2.95-31.3 4.9-33.05L4.9-33.05Q6.65-34.25 9.35-34.25L9.35-34.25 31.2-34.25 30.7-30.45 12.95-30.45 11.55-20 23.7-20 23.2-16.15 11.05-16.15 8.9 0.05 4.95 0.05 9-30.35ZM28.5 0.45Q26.5 0.45 25.42-0.55 24.35-1.55 24.2-3.15L24.2-3.15 27.25-4.55Q27.3-3.95 27.57-3.6 27.85-3.25 28.25-3.25L28.25-3.25Q29.25-3.25 30.05-4.8L30.05-4.8 46.1-34.4 47.75-34.4 57.4 0.05 53.25 0.05 50.25-11 37.65-11 33.05-2.4Q32.35-1.1 31.05-0.33 29.75 0.45 28.5 0.45L28.5 0.45ZM39.6-14.7L49.1-14.7 46.1-27.4 46.1-28.15 45.95-27.4 39.6-14.7ZM71.95 1Q68.9 1 66.5-0.2 64.09-1.4 62.67-3.53 61.25-5.65 61.05-8.4L61.05-8.4 64.55-9.7Q64.75-6.6 66.87-4.7 69-2.8 72.2-2.8L72.2-2.8Q75.7-2.8 78.17-4.9 80.65-7 81.09-10.25L81.09-10.25Q81.15-10.6 81.15-11.2L81.15-11.2Q81.15-13.05 79.82-14.33 78.5-15.6 74.95-17.25L74.95-17.25Q70.7-19.1 68.77-21.13 66.84-23.15 66.84-25.8L66.84-25.8Q66.84-28.35 68.27-30.53 69.7-32.7 72.07-33.98 74.45-35.25 77.2-35.25L77.2-35.25Q80.5-35.25 82.62-33.58 84.75-31.9 84.75-29.4L84.75-29.4Q84.75-27 83.22-25.48 81.7-23.95 79.4-23.95L79.4-23.95Q79.09-23.95 78.4-24.05L78.4-24.05 79-27.4Q79.59-27.15 80.25-27.73 80.9-28.3 80.9-29.2L80.9-29.2Q80.9-30.15 79.82-30.8 78.75-31.45 77.15-31.45L77.15-31.45Q74.84-31.45 72.95-30.03 71.05-28.6 70.8-26.65L70.8-26.65Q70.59-25.05 72.02-23.58 73.45-22.1 76.55-20.65L76.55-20.65Q81.05-18.7 83.09-16.48 85.15-14.25 85.15-11.3L85.15-11.3Q85.15-7.9 83.34-5.08 81.55-2.25 78.52-0.63 75.5 1 71.95 1L71.95 1ZM95.64-29.45L95.69-29.85Q95.69-30.45 95.39-30.85 95.09-31.25 94.44-31.25L94.44-31.25Q92.99-31.2 92.54-30.25L92.54-30.25 89.99-32.45Q90.64-33.5 91.79-34.23 92.94-34.95 94.64-35L94.64-35Q97.04-35.05 98.34-33.73 99.64-32.4 99.64-30.2L99.64-30.2Q99.64-29.6 99.59-29.3L99.59-29.3 98.34-19.75 114.59-19.75 116.54-34.3 120.49-34.3 115.99 0.05 111.99 0.05 114.09-15.95 97.84-15.95 95.74 0.05 91.79 0.05 95.64-29.45ZM125.39 0.05L129.89-34.3 133.89-34.3 129.34 0.05 125.39 0.05ZM153.59 1.1Q149.19 1.05 145.81-0.88 142.44-2.8 140.61-6.15 138.79-9.5 138.79-13.75L138.79-13.75Q138.79-15.05 138.94-16.4L138.94-16.4 139.14-17.85Q139.74-22.6 142.44-26.55 145.14-30.5 149.19-32.8 153.24-35.1 157.74-35.1L157.74-35.1Q161.94-35.1 165.29-33.13 168.64-31.15 170.51-27.7 172.39-24.25 172.39-20.05L172.39-20.05Q172.39-18.85 172.24-17.65L172.24-17.65 172.04-16.2Q171.39-11.3 168.74-7.3 166.09-3.3 162.09-1.07 158.09 1.15 153.59 1.1L153.59 1.1ZM153.54-2.7Q157.14-2.7 160.29-4.5 163.44-6.3 165.51-9.43 167.59-12.55 168.09-16.4L168.09-16.4 168.29-17.85Q168.44-18.85 168.44-19.85L168.44-19.85Q168.44-23.05 167.04-25.68 165.64-28.3 163.16-29.8 160.69-31.3 157.59-31.3L157.59-31.3Q154.09-31.3 150.94-29.45 147.79-27.6 145.69-24.48 143.59-21.35 143.09-17.65L143.09-17.65 142.89-16.2Q142.74-15.15 142.74-14.1L142.74-14.1Q142.74-10.8 144.09-8.2 145.44-5.6 147.89-4.15 150.34-2.7 153.54-2.7L153.54-2.7ZM177.94 0.6Q176.54 0.6 175.41-0.2 174.29-1 173.74-2.25L173.74-2.25 176.79-4.05Q177.19-3.05 178.09-3.35L178.09-3.35Q178.59-3.4 178.94-3.78 179.29-4.15 179.39-4.6L179.39-4.6 183.29-34.3 185.89-34.3 190.39-28.05 202.69-8.1 202.64-8.85 205.84-34.25 209.89-34.25 205.39 0.05 203.59 0.05 185.79-27.5 186.14-26.2 183.39-4.4Q183.09-2.25 181.46-0.83 179.84 0.6 177.94 0.6L177.94 0.6ZM219.88-29.9Q219.73-30.8 219.18-30.8L219.18-30.8 218.78-30.7Q218.58-30.7 218.38-30.55 218.18-30.4 218.08-30.25L218.08-30.25 215.68-32.8Q216.63-34 218.28-34.55L218.28-34.55Q219.13-34.8 219.73-34.8L219.73-34.8Q221.28-34.8 222.36-33.75 223.43-32.7 223.68-30.9L223.68-30.9 227.93-6.3 227.88-4.35 228.38-6.3 240.53-34.35 244.08-34.35 248.68-6.3 248.78-4.2 249.28-6.3 261.43-34.35 265.43-34.35 250.03 0.05 246.48 0.05 241.43-27.35 229.18 0.05 225.63 0.05 219.88-29.9ZM273.78-30.4Q272.58-30.4 271.98-29.8L271.98-29.8Q271.63-29.6 271.38-29.15 271.13-28.7 271.03-28.2L271.03-28.2 267.43-28.45Q267.63-29.95 268.16-31.08 268.68-32.2 269.68-33.1L269.68-33.1Q271.43-34.3 274.13-34.3L274.13-34.3 295.93-34.3 295.43-30.5 277.68-30.5 276.28-20.05 288.43-20.05 287.93-16.25 275.78-16.25 274.13-3.75 291.88-3.75 291.38 0.05 269.68 0.05 273.78-30.4ZM299.33 0.45Q297.33 0.45 296.25-0.55 295.18-1.55 295.03-3.15L295.03-3.15 298.08-4.55Q298.13-3.95 298.4-3.6 298.68-3.25 299.08-3.25L299.08-3.25Q300.08-3.25 300.88-4.8L300.88-4.8 316.93-34.4 318.58-34.4 328.23 0.05 324.08 0.05 321.08-11 308.48-11 303.88-2.4Q303.18-1.1 301.88-0.33 300.58 0.45 299.33 0.45L299.33 0.45ZM310.43-14.7L319.93-14.7 316.93-27.4 316.93-28.15 316.78-27.4 310.43-14.7ZM339.38-30.4Q338.18-30.4 337.58-29.8L337.58-29.8Q337.23-29.6 336.98-29.15 336.73-28.7 336.63-28.2L336.63-28.2 333.03-28.45Q333.23-29.95 333.75-31.08 334.28-32.2 335.28-33.1L335.28-33.1Q337.03-34.3 339.73-34.3L339.73-34.3 350.83-34.3Q353.08-34.3 354.63-33.35L354.63-33.35Q356.68-32.35 357.85-30.1 359.03-27.85 359.03-25.1L359.03-25.1Q359.03-24.6 358.93-23.5L358.93-23.5Q358.58-20.95 357.2-18.78 355.83-16.6 353.58-15.2L353.58-15.2Q352.13-14.5 350.03-14.4L350.03-14.4Q350.78-14 351.23-13.05L351.23-13.05Q351.98-12.25 352.58-11L352.58-11 356.68-3.75Q356.93-3.3 357.38-3.3L357.38-3.3Q357.78-3.3 358.13-3.55 358.48-3.8 358.68-4.2L358.68-4.2 361.53-1.8Q360.73-0.7 359.53-0.1 358.33 0.5 357.13 0.5L357.13 0.5Q355.93 0.5 354.93-0.08 353.93-0.65 353.38-1.7L353.38-1.7 348.83-9.7Q348.58-10.1 347.93-11.25 347.28-12.4 346.38-12.85 345.48-13.3 343.88-13.4L343.88-13.4 344.28-17.25 347.88-17.25Q351.03-17.25 353.08-19.4 355.13-21.55 355.13-25.15L355.13-25.15Q355.13-27.6 353.85-29.08 352.58-30.55 350.38-30.55L350.38-30.55 343.28-30.55 339.23 0.05 335.28 0.05 339.38-30.4Z" opacity="1" transform="matrix(1,0,0,1,0,0)" fill="#ffffff" class="wordmark-text-0" data-fill-palette-color="quaternary" id="text-0"></path></svg></g></svg></g></svg></g></svg></g><g></g></svg></g><defs></defs></svg><rect width="395.52" height="81.22451863739121" fill="none" stroke="none" visibility="hidden"></rect></g></svg></g></svg>